<svg id="Layer_1" data-name="Layer 1" xmlns="http://www.w3.org/2000/svg" viewBox="0 0 22 15.05">
  <defs>
    <style>
      .cls-1 {
        fill: #07aa82;
      }
    </style>
  </defs>
  <path class="cls-1" d="M15.66,17.23H34.18A1.73,1.73,0,0,1,35.92,19h0a1.74,1.74,0,0,1-1.74,1.74H15.66A1.74,1.74,0,0,1,13.92,19h0A1.73,1.73,0,0,1,15.66,17.23Z" transform="translate(-13.92 -17.23)"/>
  <path class="cls-1" d="M20.66,23H34.19a1.73,1.73,0,0,1,1.73,1.73h0a1.74,1.74,0,0,1-1.73,1.74H20.66a1.74,1.74,0,0,1-1.74-1.74h0A1.73,1.73,0,0,1,20.66,23Z" transform="translate(-13.92 -17.23)"/>
  <path class="cls-1" d="M15.66,28.8H34.18a1.74,1.74,0,0,1,1.74,1.74h0a1.74,1.74,0,0,1-1.74,1.74H15.66a1.74,1.74,0,0,1-1.74-1.74h0A1.74,1.74,0,0,1,15.66,28.8Z" transform="translate(-13.92 -17.23)"/>
</svg>
